<?xml version="1.0" encoding="UTF-8"?>
<svg id="Layer_2" data-name="Layer 2" xmlns="http://www.w3.org/2000/svg" xmlns:xlink="http://www.w3.org/1999/xlink" viewBox="0 0 152.36 154.48">
  <defs>
    <style>
      .cls-1 {
        fill: url(#linear-gradient-6);
      }

      .cls-1, .cls-2, .cls-3, .cls-4, .cls-5, .cls-6, .cls-7, .cls-8, .cls-9, .cls-10, .cls-11, .cls-12, .cls-13, .cls-14, .cls-15, .cls-16, .cls-17, .cls-18, .cls-19, .cls-20 {
        stroke-miterlimit: 10;
      }

      .cls-1, .cls-2, .cls-3, .cls-4, .cls-5, .cls-6, .cls-7, .cls-8, .cls-11, .cls-12, .cls-13, .cls-14, .cls-15, .cls-17, .cls-18, .cls-19, .cls-20 {
        stroke: #0f2944;
      }

      .cls-2 {
        fill: url(#linear-gradient-13);
      }

      .cls-3 {
        fill: url(#linear-gradient-10);
      }

      .cls-4 {
        fill: url(#linear-gradient-4);
      }

      .cls-5 {
        fill: url(#linear-gradient-7);
      }

      .cls-6 {
        fill: url(#linear-gradient-16);
      }

      .cls-7 {
        fill: url(#linear-gradient-18);
      }

      .cls-8 {
        fill: url(#linear-gradient-14);
      }

      .cls-9 {
        fill: #ccc;
      }

      .cls-9, .cls-16 {
        stroke: #1a1a1a;
        stroke-width: 2px;
      }

      .cls-10 {
        stroke: #999;
      }

      .cls-10, .cls-16 {
        fill: none;
      }

      .cls-21 {
        fill: #4d4d4d;
        opacity: .31;
      }

      .cls-11 {
        fill: url(#linear-gradient-15);
      }

      .cls-12 {
        fill: url(#linear-gradient-8);
      }

      .cls-13 {
        fill: url(#linear-gradient-3);
      }

      .cls-14 {
        fill: url(#linear-gradient-9);
      }

      .cls-15 {
        fill: url(#linear-gradient-2);
      }

      .cls-17 {
        fill: url(#linear-gradient-5);
      }

      .cls-18 {
        fill: url(#linear-gradient-12);
      }

      .cls-22 {
        fill: url(#linear-gradient);
      }

      .cls-19 {
        fill: url(#linear-gradient-11);
      }

      .cls-20 {
        fill: url(#linear-gradient-17);
      }
    </style>
    <linearGradient id="linear-gradient" x1="133.13" y1="137.57" x2="17.36" y2="21.8" gradientUnits="userSpaceOnUse">
      <stop offset="0" stop-color="#15fbff"/>
      <stop offset="1" stop-color="#d1fc74"/>
    </linearGradient>
    <linearGradient id="linear-gradient-2" x1="57.03" y1="56.27" x2="35.49" y2="43.83" gradientUnits="userSpaceOnUse">
      <stop offset="0" stop-color="#fe9004"/>
      <stop offset=".13" stop-color="#fe940a"/>
      <stop offset=".31" stop-color="#fea21d"/>
      <stop offset=".52" stop-color="#feb93c"/>
      <stop offset=".76" stop-color="#fed967"/>
      <stop offset="1" stop-color="#ffff9b"/>
    </linearGradient>
    <linearGradient id="linear-gradient-3" x1="50.47" y1="52.49" x2="42.04" y2="47.61" xlink:href="#linear-gradient-2"/>
    <linearGradient id="linear-gradient-4" x1="74.99" y1="86.67" x2="73.29" y2="85.69" xlink:href="#linear-gradient-2"/>
    <linearGradient id="linear-gradient-5" x1="83.83" y1="78.94" x2="48.03" y2="58.27" xlink:href="#linear-gradient-2"/>
    <linearGradient id="linear-gradient-6" x1="74.99" y1="86.67" x2="73.29" y2="85.69" xlink:href="#linear-gradient-2"/>
    <linearGradient id="linear-gradient-7" x1="74.99" y1="86.67" x2="73.29" y2="85.69" xlink:href="#linear-gradient-2"/>
    <linearGradient id="linear-gradient-8" x1="61.59" y1="37.16" x2="42.02" y2="25.86" xlink:href="#linear-gradient-2"/>
    <linearGradient id="linear-gradient-9" x1="68.27" y1="19.15" x2="46.73" y2="6.71" xlink:href="#linear-gradient-2"/>
    <linearGradient id="linear-gradient-10" x1="61.71" y1="15.37" x2="53.28" y2="10.49" xlink:href="#linear-gradient-2"/>
    <linearGradient id="linear-gradient-11" x1="84.5" y1="22.88" x2="64.51" y2="11.34" xlink:href="#linear-gradient-2"/>
    <linearGradient id="linear-gradient-12" x1="102.13" y1="27.08" x2="80.59" y2="14.65" xlink:href="#linear-gradient-2"/>
    <linearGradient id="linear-gradient-13" x1="95.57" y1="23.31" x2="87.14" y2="18.43" xlink:href="#linear-gradient-2"/>
    <linearGradient id="linear-gradient-14" x1="98.65" y1="104.18" x2="51.84" y2="77.16" xlink:href="#linear-gradient-2"/>
    <linearGradient id="linear-gradient-15" x1="74.99" y1="86.67" x2="73.29" y2="85.69" xlink:href="#linear-gradient-2"/>
    <linearGradient id="linear-gradient-16" x1="74.99" y1="86.67" x2="73.29" y2="85.69" xlink:href="#linear-gradient-2"/>
    <linearGradient id="linear-gradient-17" x1="119.76" y1="53.49" x2="90.91" y2="36.83" xlink:href="#linear-gradient-2"/>
    <linearGradient id="linear-gradient-18" x1="104.88" y1="35.43" x2="93.81" y2="29.04" xlink:href="#linear-gradient-2"/>
  </defs>
  <g id="Layer_1-2" data-name="Layer 1">
    <g id="MVP_1" data-name="MVP 1">
      <rect class="cls-22" x="13.08" y="17.52" width="124.32" height="124.32" rx="14.59" ry="14.59"/>
      <g>
        <path class="cls-9" d="M149.87,108.32l-73.35,44.7c-.99.6-2.22.6-3.2,0L2.49,109.7c-1.99-1.22-1.99-4.14,0-5.35l73.35-44.69c.99-.6,2.22-.6,3.2,0l70.82,43.31c1.99,1.22,1.99,4.14,0,5.35Z"/>
        <g>
          <line class="cls-10" x1="12.73" y1="98.11" x2="89.85" y2="145.28"/>
          <line class="cls-10" x1="30.56" y1="87.22" x2="107.36" y2="134.2"/>
          <line class="cls-10" x1="48.22" y1="76.23" x2="125.02" y2="123.21"/>
          <line class="cls-10" x1="66" y1="65.31" x2="142.58" y2="112.15"/>
          <line class="cls-10" x1="140.36" y1="96.58" x2="60.4" y2="145.29"/>
          <line class="cls-10" x1="122.24" y1="85.73" x2="43.13" y2="133.94"/>
          <line class="cls-10" x1="104.29" y1="74.8" x2="25.32" y2="122.91"/>
          <line class="cls-10" x1="86.62" y1="63.68" x2="7.44" y2="111.93"/>
        </g>
        <path class="cls-16" d="M149.87,108.32l-73.35,44.7c-.99.6-2.22.6-3.2,0L2.49,109.7c-1.99-1.22-1.99-4.14,0-5.35l73.35-44.69c.99-.6,2.22-.6,3.2,0l70.82,43.31c1.99,1.22,1.99,4.14,0,5.35Z"/>
      </g>
      <g>
        <path class="cls-15" d="M58.12,46.3c-.2-.62-.45-1.23-.75-1.82-.8-1.59-1.92-2.99-3.31-4.11-2.13-1.72-4.84-2.76-7.81-2.76-2.31,0-4.46.63-6.31,1.73-.83.49-1.6,1.08-2.29,1.75-2.35,2.25-3.84,5.43-3.84,8.96,0,6.65,5.24,12.08,11.81,12.41.18.01.36.02.54.02h.09c6.79,0,12.31-5.42,12.43-12.17.01-.09.01-.17.01-.26,0-1.31-.2-2.56-.57-3.75ZM46.26,54.92c-2.69,0-4.87-2.18-4.87-4.87s2.18-4.87,4.87-4.87,4.87,2.18,4.87,4.87-2.18,4.87-4.87,4.87Z"/>
        <circle class="cls-13" cx="46.26" cy="50.05" r="4.87"/>
        <path class="cls-4" d="M75.25,86.22c-.27.02-.53.03-.79.03-.48,0-.96-.04-1.42-.11.72.04,1.46.07,2.21.08Z"/>
        <path class="cls-17" d="M83.38,77.27v.07c0,2.15-.76,4.12-2.03,5.67-1.48,1.79-3.66,3-6.1,3.21-.75-.01-1.49-.04-2.21-.08-1.68-.27-3.22-1.01-4.44-2.08l-.45-.41s-.04-.05-.06-.07l-.61-.57-5.44-5.12-1.79-1.68-1.2-1.13h-.01s-3.84-3.62-3.84-3.62l-9.58-9c.18.01.36.02.54.02h.09c6.79,0,12.31-5.42,12.43-12.17l12.29,11.54,6.84,6.43,2.27,2.13s.04.03.05.04l.94.88s0,.01.01.01c.25.28.48.57.69.88.6.86,1.06,1.84,1.32,2.88.19.7.28,1.42.29,2.17Z"/>
        <path class="cls-1" d="M75.25,86.22c-.27.02-.53.03-.79.03-.48,0-.96-.04-1.42-.11.72.04,1.46.07,2.21.08Z"/>
        <path class="cls-5" d="M75.25,86.22c-.27.02-.53.03-.79.03-.48,0-.96-.04-1.42-.11.72.04,1.46.07,2.21.08Z"/>
        <path class="cls-12" d="M63.72,23.7l-6.35,20.78c-.8-1.59-1.92-2.99-3.31-4.11-2.13-1.72-4.84-2.76-7.81-2.76-2.31,0-4.46.63-6.31,1.73l6.39-20.95c1.93,3.94,5.9,6.72,10.53,6.95.18.02.36.03.55.03h.09c2.27,0,4.39-.61,6.22-1.67Z"/>
        <path class="cls-14" d="M69.37,9.19c-.39-1.22-.95-2.36-1.67-3.37-.67-.97-1.48-1.83-2.39-2.56-2.13-1.73-4.85-2.76-7.81-2.76-3.34,0-6.37,1.32-8.6,3.47-2.36,2.26-3.84,5.43-3.84,8.97,0,.17,0,.35.01.52.07,1.76.52,3.43,1.26,4.93,1.93,3.94,5.9,6.72,10.53,6.95.18.02.36.03.55.03h.09c2.27,0,4.39-.61,6.22-1.67.05-.03.1-.05.15-.08h.01c3.49-2.1,5.87-5.84,6.04-10.16,0-.09,0-.18,0-.27.01-.08.01-.17.01-.25,0-1.31-.2-2.57-.57-3.75ZM62.34,13.46c-.26,2.44-2.33,4.34-4.84,4.34s-4.58-1.9-4.84-4.34c-.02-.18-.03-.35-.03-.53,0-2.69,2.18-4.87,4.87-4.87s4.87,2.18,4.87,4.87c0,.18,0,.35-.03.53Z"/>
        <path class="cls-3" d="M62.37,12.93c0,.18,0,.35-.03.53-.26,2.44-2.33,4.34-4.84,4.34s-4.58-1.9-4.84-4.34c-.02-.18-.03-.35-.03-.53,0-2.69,2.18-4.87,4.87-4.87s4.87,2.18,4.87,4.87Z"/>
        <path class="cls-19" d="M84.71,10.36c-.7.45-1.36.97-1.96,1.54-.23.22-.45.44-.65.68-.07.07-.13.14-.19.21-.17.2-.34.42-.5.64-.02,0-.02.02-.03.03s-.02.03-.03.04c-.18.24-.35.5-.52.76h-.01c-.16.28-.32.55-.47.84-.15.27-.28.55-.4.83-.13.28-.23.56-.33.86-.26.72-.45,1.47-.56,2.25-.03.17-.05.35-.07.53-.02.21-.04.43-.05.64-.01.22-.02.44-.02.66,0,2.78.92,5.35,2.47,7.41l-17.51-4.66c3.49-2.1,5.87-5.84,6.04-10.16,0-.09,0-.18,0-.27.01-.08.01-.17.01-.25,0-1.31-.2-2.57-.57-3.75-.39-1.22-.95-2.36-1.67-3.37l17.01,4.54Z"/>
        <path class="cls-18" d="M103.22,17.12c-.42-1.33-1.06-2.57-1.88-3.66-.62-.85-1.35-1.61-2.17-2.27-2.13-1.73-4.85-2.76-7.81-2.76-2.45,0-4.72.7-6.65,1.93-.7.45-1.36.97-1.96,1.54-.23.22-.45.44-.65.68-.07.07-.13.14-.19.21-.17.2-.34.42-.5.64-.02,0-.02.02-.03.03s-.02.03-.03.04c-.18.24-.35.5-.52.76h-.01c-.16.28-.32.55-.47.84-.15.27-.28.55-.4.83-.12.28-.23.56-.33.86-.26.72-.45,1.47-.56,2.25-.03.17-.05.35-.07.53-.02.21-.04.43-.05.64-.01.22-.02.44-.02.66,0,2.78.92,5.35,2.47,7.41,2.14,2.89,5.52,4.81,9.33,5,.18.01.36.02.54.02h.1c.67,0,1.34-.05,1.98-.16.51-.07,1-.19,1.48-.33h.01c3.88-1.13,6.97-4.07,8.28-7.86.06-.17.11-.34.17-.52.09-.33.18-.66.24-1,.16-.75.26-1.51.27-2.3.01-.09.01-.17.01-.26,0-1.31-.2-2.57-.58-3.75ZM91.36,25.74c-2.69,0-4.87-2.18-4.87-4.87s2.18-4.87,4.87-4.87,4.87,2.18,4.87,4.87-2.18,4.87-4.87,4.87Z"/>
        <circle class="cls-2" cx="91.36" cy="20.87" r="4.87"/>
        <path class="cls-8" d="M101.59,83.01v15.34c0,1.48-1.24,2.88-3.44,4.08-1.5.83-3.43,1.57-5.7,2.18-1.21.33-2.51.63-3.9.88h-.01c-3.91.72-8.45,1.13-13.29,1.13-7.81,0-14.85-1.07-19.68-2.77-.05-.02-.1-.04-.15-.05-1.17-.42-2.2-.88-3.08-1.37-.88-.48-1.61-1-2.16-1.53-.25-.25-.46-.49-.64-.74-.39-.53-.6-1.09-.63-1.66-.01-.05-.01-.1-.01-.15v-15.34c0-1.26.89-2.45,2.48-3.51,1.98-1.34,5.06-2.47,8.87-3.29l1.79,1.68,5.44,5.12.61.57s.04.04.06.07l.45.41c1.22,1.07,2.76,1.81,4.44,2.08.46.07.94.11,1.42.11.26,0,.52,0,.79-.03,2.44-.21,4.62-1.42,6.1-3.21,1.27-1.55,2.03-3.52,2.03-5.67v-.07c-.01-.75-.1-1.47-.29-2.17,5.79.57,10.72,1.75,14.02,3.29,2.83,1.32,4.48,2.91,4.48,4.62Z"/>
        <path class="cls-11" d="M75.25,86.22c-.27.02-.53.03-.79.03-.48,0-.96-.04-1.42-.11.72.04,1.46.07,2.21.08Z"/>
        <path class="cls-6" d="M75.25,86.22c-.27.02-.53.03-.79.03-.48,0-.96-.04-1.42-.11.72.04,1.46.07,2.21.08Z"/>
        <polygon class="cls-20" points="120.97 39.15 120.48 52.25 113.54 52 113.93 41.79 110.37 38.13 95.81 45.42 96.61 50.47 105.03 56.2 101.13 61.93 90.29 54.57 88.2 41.52 93.75 38.73 93.99 38.6 99.44 35.89 106.29 32.46 106.73 32.24 108.46 31.38 108.45 31.37 111.81 29.69 120.97 39.15"/>
        <path class="cls-7" d="M106.73,32.24l-.44.22-6.85,3.43-5.45,2.71-2.63-5.3c.67,0,1.34-.05,1.98-.16.51-.07,1-.19,1.48-.33h.01c3.88-1.13,6.97-4.07,8.28-7.86l3.62,7.29Z"/>
      </g>
      <path class="cls-21" d="M133.13,117.8l-27.28,16.63c-.29-.08-.58-.16-.88-.25-5.51-1.61-11.36-3.75-17.31-6.39-.09-.04-.18-.08-.27-.12-6.97-3.1-13.34-6.56-18.84-10.13-6.46-4.19-11.71-8.51-15.28-12.56-1.14-1.28-2.1-2.54-2.88-3.75-.07-.11-.14-.22-.21-.33.55.53,1.28,1.05,2.16,1.53.88.49,1.91.95,3.08,1.37.05.01.1.03.15.05,4.83,1.7,11.87,2.77,19.68,2.77,4.72,0,9.15-.39,12.99-1.08.1-.01.2-.03.3-.05h.01c1.34-.24,2.6-.53,3.77-.85.04-.01.09-.02.13-.03,2.27-.61,4.2-1.35,5.7-2.18,1.37-.75,2.37-1.58,2.93-2.46.04-.05.07-.11.1-.17.27-.47.41-.96.41-1.45v-.89c7.02,3.17,13.43,6.69,18.92,10.31,5.06,3.33,9.34,6.75,12.62,10.03Z"/>
    </g>
  </g>
</svg>